# xmcd CD database file
#
# Track frame offsets:
#	150
#	19801
#	37060
#	62973
#	90906
#	115763
#	139109
#	159775
#	177888
#	201305
#	217257
#
# Disc length: 3123 seconds
#
# Revision: 0
# Processed by: cddbd v1.5PL3 Copyright (c) Steve Scherf et al.
# Submitted via: Feurio! 1.66 - http://www.feurio.com
#
DISCID=980c310b
DTITLE=Solomon Burke - Don't Give Up On Me
DYEAR=1900
DGENRE=Blues
TTITLE0=Don't Give Up On Me
TTITLE1=Fast Train
TTITLE2=Diamond In Your Mind
TTITLE3=Soul Searchin'
TTITLE4=Flesh And Blood
TTITLE5=Only A Dream
TTITLE6=Stepchild
TTITLE7=The Judgement
TTITLE8=None Of Us Are Free
TTITLE9=The Other Side Of The Coin
TTITLE10=Sit This One Out
EXTD=
EXTT0=
EXTT1=
EXTT2=
EXTT3=
EXTT4=
EXTT5=
EXTT6=
EXTT7=
EXTT8=
EXTT9=
EXTT10=
PLAYORDER=
